
    <svg xmlns="http://www.w3.org/2000/svg" width="256" height="256" viewBox="0 0 256 256"><path fill="#8B5CF6" d="M208 2H48C21.5 2 0 23.5 0 50v156c0 26.5 21.5 48 48 48h160c26.5 0 48-21.5 48-48V50c0-26.5-21.5-48-48-48zm-48 200h-64v-24h64v24zm32-48H64V58h128v96z"/><path fill="#FFFFFF" d="M128 78a10 10 0 1 0 0-20a10 10 0 0 0 0 20zm0 20a10 10 0 1 0 0-20a10 10 0 0 0 0 20zm0 20a10 10 0 1 0 0-20a10 10 0 0 0 0 20zm0 20a10 10 0 1 0 0-20a10 10 0 0 0 0 20zm0 20a10 10 0 1 0 0-20a10 10 0 0 0 0 20zm0 20a10 10 0 1 0 0-20a10 10 0 0 0 0 20z"/></svg>
  